<?xml version="1.0" standalone="no"?><!DOCTYPE svg PUBLIC "-//W3C//DTD SVG 1.1//EN" "http://www.w3.org/Graphics/SVG/1.1/DTD/svg11.dtd"><svg class="icon" width="64px" height="57.14px" viewBox="0 0 1147 1024" version="1.1" xmlns="http://www.w3.org/2000/svg"><path d="M71.745223 71.745223V19.566879a6.522293 6.522293 0 0 0-13.044586 0v52.178344H6.522293a6.522293 6.522293 0 0 0 0 13.044586h52.178344v52.178344a6.522293 6.522293 0 0 0 13.044586 0v-52.178344h52.178344a6.522293 6.522293 0 0 0 0-13.044586h-52.178344z" fill="#212121" /><path d="M156.535032 193.059873v-13.044586a6.522293 6.522293 0 0 0-13.044586 0v13.044586h-13.044586a6.522293 6.522293 0 0 0 0 13.044586h13.044586v13.044586a6.522293 6.522293 0 0 0 13.044586 0v-13.044586h13.044586a6.522293 6.522293 0 0 0 0-13.044586h-13.044586z" fill="#212121" /><path d="M821.808917 697.88535m-326.114649 0a326.11465 326.11465 0 1 0 652.229299 0 326.11465 326.11465 0 1 0-652.229299 0Z" fill="#FFE366" /><path d="M847.898089 952.254777H352.203822a110.878981 110.878981 0 0 1-110.878981-110.878981V202.191083a110.878981 110.878981 0 0 1 110.878981-110.878981h495.694267a110.878981 110.878981 0 0 1 110.878981 110.878981v639.184713a110.878981 110.878981 0 0 1-110.878981 110.878981zM352.203822 104.356688a97.834395 97.834395 0 0 0-97.834395 97.834395v639.184713a97.834395 97.834395 0 0 0 97.834395 97.834395h495.694267a97.834395 97.834395 0 0 0 97.834395-97.834395V202.191083a97.834395 97.834395 0 0 0-97.834395-97.834395H352.203822z" fill="#212121" /><path d="M502.216561 482.649682h195.668789v13.044586H502.216561z" fill="#212121" /><path d="M469.605096 339.159236h260.891719v13.044586H469.605096zM443.515924 0h313.070063a6.522293 6.522293 0 0 1 6.522293 6.522293 6.522293 6.522293 0 0 1-6.522293 6.522293H443.515924a6.522293 6.522293 0 0 1-6.522293-6.522293 6.522293 6.522293 0 0 1 6.522293-6.522293z" fill="#212121" /><path d="M593.528662 0h13.044586v97.834395h-13.044586z" fill="#212121" /><path d="M436.993631 626.140127h326.114649v13.044586H436.993631z" fill="#212121" /></svg>