<?xml version="1.0" standalone="no"?><!DOCTYPE svg PUBLIC "-//W3C//DTD SVG 1.1//EN" "http://www.w3.org/Graphics/SVG/1.1/DTD/svg11.dtd"><svg class="icon" width="64px" height="48.98px" viewBox="0 0 1338 1024" version="1.1" xmlns="http://www.w3.org/2000/svg"><path d="M713.521504 93.666916a275.490928 275.490928 0 1 1-275.490928 275.490928 275.490928 275.490928 0 0 1 275.490928-275.490928z" fill="#F6DC68" /><path d="M988.185959 1023.99978a54.712498 54.712498 0 0 1-38.954417-16.143769l-228.271783-228.271783 7.768844-7.768844 228.271783 228.271783A44.078548 44.078548 0 0 0 1019.316434 937.716021l-228.437078-228.437078 7.768844-7.768844 228.437078 228.437078a55.098186 55.098186 0 0 1-38.899319 94.052603zM1101.963712 661.178227a33.058911 33.058911 0 1 1 33.058912-33.058911 33.058911 33.058911 0 0 1-33.058912 33.058911z m0-55.098185a22.039274 22.039274 0 1 0 22.039274 22.039274 22.039274 22.039274 0 0 0-22.039274-22.039274zM104.686553 391.197118a5.509819 5.509819 0 0 1 5.509818 5.509818v88.157097a5.509819 5.509819 0 0 1-11.019637 0V396.706936a5.509819 5.509819 0 0 1 5.509819-5.509818z" fill="#1D1D1D" /><path d="M60.608004 435.275666h88.157097a5.509819 5.509819 0 0 1 0 11.019637H60.608004a5.509819 5.509819 0 0 1 0-11.019637zM1311.336818 462.824759a5.509819 5.509819 0 0 1 5.509818 5.509819v44.078548a5.509819 5.509819 0 0 1-11.019637 0v-44.078548a5.509819 5.509819 0 0 1 5.509819-5.509819z" fill="#1D1D1D" /><path d="M1289.297543 484.864033h44.078549a5.509819 5.509819 0 0 1 0 11.019638h-44.078549a5.509819 5.509819 0 0 1 0-11.019638zM27.549093 490.373852a5.509819 5.509819 0 0 1 5.509818 5.509819v44.078548a5.509819 5.509819 0 0 1-11.019637 0v-44.078548a5.509819 5.509819 0 0 1 5.509819-5.509819z" fill="#1D1D1D" /><path d="M5.509819 512.413126h44.078548a5.509819 5.509819 0 0 1 0 11.019637H5.509819a5.509819 5.509819 0 0 1 0-11.019637zM980.747704 44.078548h88.157097a5.509819 5.509819 0 0 1 0 11.019638h-88.157097a5.509819 5.509819 0 0 1 0-11.019638z" fill="#1D1D1D" /><path d="M1024.826252 0a5.509819 5.509819 0 0 1 5.509819 5.509819v88.157097a5.509819 5.509819 0 0 1-11.019637 0V5.509819a5.509819 5.509819 0 0 1 5.509818-5.509819zM690.049677 407.726574a5.509819 5.509819 0 0 1-4.848641-2.920204 157.084927 157.084927 0 0 0-185.84618-76.53138 5.509819 5.509819 0 0 1-3.305891-10.523754 168.104564 168.104564 0 0 1 198.90445 81.600413 5.509819 5.509819 0 0 1-4.903738 8.374925zM711.537969 793.413873a20.882212 20.882212 0 0 1-14.821412-6.115899l-22.975943-22.920845 7.768844-7.768844 22.975943 22.920845a9.917673 9.917673 0 0 0 13.994939 0l82.647279-82.647278a9.917673 9.917673 0 0 0 0-13.99494l-22.975944-22.920845 7.768845-7.823942 22.975943 22.920845a20.937311 20.937311 0 0 1 0 29.587726l-82.647278 82.647278a20.882212 20.882212 0 0 1-14.711216 6.115899z" fill="#1D1D1D" /><path d="M528.942582 804.43351a297.530202 297.530202 0 1 1 297.530202-297.530202 297.860791 297.860791 0 0 1-297.530202 297.530202z m0-584.040768a286.510565 286.510565 0 1 0 286.510565 286.510566 286.841154 286.841154 0 0 0-286.510565-286.510566z" fill="#1D1D1D" /></svg>